<svg width="463" height="70" viewBox="0 0 463 70" fill="none" xmlns="http://www.w3.org/2000/svg">
<rect x="62.8" y="23.8" width="30.4" height="30.4" stroke="#FF2020" stroke-width="7.6"/>
<path d="M59 20H97V58L89.4 50.4V27.6H66.6L59 20Z" fill="white" fill-opacity="0.5"/>
<path d="M5.58984 21.2969C5.58984 20.9922 5.60156 20.6992 5.625 20.418C5.67188 20.1133 5.75391 19.8438 5.87109 19.6094C6.01172 19.375 6.1875 19.1875 6.39844 19.0469C6.63281 18.9062 6.92578 18.8359 7.27734 18.8359C7.53516 18.8359 7.74609 18.918 7.91016 19.082C8.07422 19.2227 8.20312 19.4102 8.29688 19.6445C8.41406 19.8789 8.48438 20.1484 8.50781 20.4531C8.55469 20.7344 8.57812 21.0156 8.57812 21.2969V36.6953H39.6914V21.2969C39.6914 20.9922 39.7031 20.6992 39.7266 20.418C39.75 20.1133 39.8086 19.8438 39.9023 19.6094C40.0195 19.375 40.1719 19.1875 40.3594 19.0469C40.5469 18.9062 40.8164 18.8359 41.168 18.8359C41.5195 18.8359 41.7891 18.9062 41.9766 19.0469C42.1875 19.1875 42.3398 19.375 42.4336 19.6094C42.5508 19.8438 42.6211 20.1133 42.6445 20.418C42.668 20.6992 42.6797 20.9922 42.6797 21.2969V55.5391C42.6797 55.8438 42.668 56.1484 42.6445 56.4531C42.6211 56.7344 42.5508 56.9922 42.4336 57.2266C42.3398 57.4609 42.1992 57.6484 42.0117 57.7891C41.8242 57.9297 41.5547 58 41.2031 58C40.8516 58 40.5703 57.9297 40.3594 57.7891C40.1719 57.6484 40.0195 57.4609 39.9023 57.2266C39.8086 56.9922 39.75 56.7344 39.7266 56.4531C39.7031 56.1484 39.6914 55.8438 39.6914 55.5391V38.875H8.57812V55.5391C8.57812 55.8203 8.55469 56.1133 8.50781 56.418C8.46094 56.6992 8.37891 56.957 8.26172 57.1914C8.16797 57.4258 8.02734 57.625 7.83984 57.7891C7.67578 57.9297 7.46484 58 7.20703 58C6.85547 58 6.5625 57.9297 6.32812 57.7891C6.11719 57.6484 5.95312 57.4609 5.83594 57.2266C5.74219 56.9922 5.67188 56.7344 5.625 56.4531C5.60156 56.1484 5.58984 55.8438 5.58984 55.5391V21.2969ZM133.734 54.8359L153.809 20.5938C154.066 20.1484 154.336 19.7617 154.617 19.4336C154.898 19.1055 155.203 18.918 155.531 18.8711C155.977 18.8711 156.293 19.0117 156.48 19.293C156.668 19.5742 156.762 19.8438 156.762 20.1016C156.762 20.3594 156.68 20.6406 156.516 20.9453C156.375 21.2266 156.211 21.5195 156.023 21.8242L135.527 56.7695C135.27 57.1914 134.977 57.5078 134.648 57.7188C134.344 57.9062 134.027 58 133.699 58C132.996 58 132.398 57.5898 131.906 56.7695L111.34 21.8242C111.152 21.4961 110.988 21.1914 110.848 20.9102C110.73 20.6055 110.672 20.3125 110.672 20.0312C110.672 19.8438 110.766 19.6094 110.953 19.3281C111.141 19.0234 111.434 18.8711 111.832 18.8711C112.23 18.918 112.559 19.1055 112.816 19.4336C113.098 19.7617 113.367 20.1484 113.625 20.5938L133.734 54.8359ZM200.566 56.7695C200.566 57.1211 200.508 57.3789 200.391 57.543C200.273 57.707 200.109 57.8242 199.898 57.8945C199.711 57.9648 199.477 58 199.195 58C198.914 58 198.598 58 198.246 58H165.41C165.176 58 165 57.9883 164.883 57.9648C164.766 57.9414 164.672 57.8828 164.602 57.7891C164.555 57.6953 164.52 57.5781 164.496 57.4375C164.496 57.2734 164.496 57.0508 164.496 56.7695V20.4883C164.496 20.1367 164.496 19.8555 164.496 19.6445C164.52 19.4336 164.566 19.2695 164.637 19.1523C164.707 19.0352 164.824 18.9531 164.988 18.9062C165.176 18.8594 165.445 18.8359 165.797 18.8359H197.895C198.246 18.8359 198.574 18.8359 198.879 18.8359C199.184 18.8359 199.453 18.8711 199.688 18.9414C199.945 19.0117 200.145 19.1289 200.285 19.293C200.426 19.457 200.496 19.7148 200.496 20.0664C200.496 20.3477 200.426 20.5703 200.285 20.7344C200.145 20.875 199.945 20.9805 199.688 21.0508C199.453 21.1211 199.184 21.1562 198.879 21.1562C198.574 21.1562 198.246 21.1562 197.895 21.1562H167.484V36.5547H197.719C198.234 36.5547 198.668 36.625 199.02 36.7656C199.371 36.9062 199.547 37.2109 199.547 37.6797C199.547 38.1953 199.395 38.5352 199.09 38.6992C198.809 38.8633 198.434 38.9453 197.965 38.9453H167.484V55.6797H197.965C198.316 55.6797 198.645 55.6797 198.949 55.6797C199.254 55.6797 199.523 55.7148 199.758 55.7852C200.016 55.8555 200.215 55.9727 200.355 56.1367C200.496 56.2773 200.566 56.4883 200.566 56.7695ZM244.723 31C244.723 32.4297 244.512 33.6836 244.09 34.7617C243.668 35.8398 243.094 36.7773 242.367 37.5742C241.664 38.3711 240.82 39.0391 239.836 39.5781C238.875 40.1172 237.844 40.5625 236.742 40.9141C235.641 41.2422 234.492 41.4883 233.297 41.6523C232.125 41.8164 230.977 41.9219 229.852 41.9688L242.789 55.5742C243 55.7852 243.141 56.0078 243.211 56.2422C243.305 56.4531 243.363 56.6523 243.387 56.8398C243.387 57.168 243.27 57.4492 243.035 57.6836C242.824 57.8945 242.543 58 242.191 58C241.934 58 241.652 57.9414 241.348 57.8242C241.066 57.707 240.785 57.4844 240.504 57.1562L226.406 42.1094H213.258V55.3281C213.258 55.6797 213.234 56.0195 213.188 56.3477C213.164 56.6523 213.105 56.9336 213.012 57.1914C212.918 57.4258 212.777 57.625 212.59 57.7891C212.426 57.9297 212.203 58 211.922 58C211.242 58 210.797 57.7422 210.586 57.2266C210.375 56.6875 210.27 56.0547 210.27 55.3281V20.1367C210.27 19.7852 210.27 19.5273 210.27 19.3633C210.293 19.1758 210.34 19.0469 210.41 18.9766C210.48 18.9062 210.598 18.8711 210.762 18.8711C210.949 18.8477 211.219 18.8359 211.57 18.8359H221.766C223.945 18.8359 226.02 18.8594 227.988 18.9062C229.98 18.9531 231.82 19.1055 233.508 19.3633C235.219 19.5977 236.766 19.9727 238.148 20.4883C239.531 20.9805 240.703 21.6836 241.664 22.5977C242.648 23.4883 243.398 24.6133 243.914 25.9727C244.453 27.332 244.723 29.0078 244.723 31ZM241.734 31C241.734 28.6797 241.301 26.8633 240.434 25.5508C239.59 24.2148 238.324 23.2305 236.637 22.5977C234.949 21.9414 232.863 21.543 230.379 21.4023C227.895 21.2383 225.023 21.1562 221.766 21.1562H213.258V39.7891H226.441C228.48 39.7891 230.426 39.6953 232.277 39.5078C234.129 39.3203 235.746 38.9219 237.129 38.3125C238.535 37.6797 239.648 36.7891 240.469 35.6406C241.312 34.4922 241.734 32.9453 241.734 31Z" fill="black"/>
<path d="M289.336 32.793C289.336 34.9258 289.066 36.7305 288.527 38.207C288.012 39.6602 287.285 40.8672 286.348 41.8281C285.41 42.7891 284.273 43.5391 282.938 44.0781C281.625 44.5938 280.172 44.9805 278.578 45.2383C276.984 45.4961 275.273 45.6484 273.445 45.6953C271.641 45.7422 269.777 45.7656 267.855 45.7656H257.379V55.3281C257.379 56.0078 257.285 56.6289 257.098 57.1914C256.934 57.7305 256.57 58 256.008 58C255.328 58 254.883 57.7422 254.672 57.2266C254.484 56.6875 254.391 56.0547 254.391 55.3281V20.1367C254.391 19.7852 254.414 19.5273 254.461 19.3633C254.531 19.1758 254.637 19.0469 254.777 18.9766C254.918 18.9062 255.094 18.8711 255.305 18.8711C255.539 18.8477 255.832 18.8359 256.184 18.8359H267.855C269.988 18.8359 271.992 18.8945 273.867 19.0117C275.766 19.1289 277.512 19.375 279.105 19.75C280.699 20.1016 282.129 20.5938 283.395 21.2266C284.66 21.8594 285.727 22.7031 286.594 23.7578C287.484 24.7891 288.164 26.043 288.633 27.5195C289.102 28.9961 289.336 30.7539 289.336 32.793ZM286.348 32.793C286.348 30.3555 285.973 28.375 285.223 26.8516C284.496 25.3281 283.371 24.1445 281.848 23.3008C280.348 22.457 278.438 21.8945 276.117 21.6133C273.797 21.3086 271.043 21.1562 267.855 21.1562H257.379V43.5859H267.855C271.043 43.5859 273.797 43.4922 276.117 43.3047C278.461 43.0938 280.383 42.625 281.883 41.8984C283.406 41.1484 284.531 40.0586 285.258 38.6289C285.984 37.1992 286.348 35.2539 286.348 32.793ZM306.105 21.1562H293.555C293.25 21.1562 292.945 21.1562 292.641 21.1562C292.336 21.1562 292.055 21.1211 291.797 21.0508C291.562 20.9805 291.363 20.875 291.199 20.7344C291.059 20.5703 290.988 20.3477 290.988 20.0664C290.988 19.7148 291.07 19.457 291.234 19.293C291.398 19.1289 291.598 19.0117 291.832 18.9414C292.09 18.8711 292.371 18.8359 292.676 18.8359C292.98 18.8359 293.273 18.8359 293.555 18.8359H321.645C321.996 18.8359 322.324 18.8359 322.629 18.8359C322.934 18.8359 323.191 18.8711 323.402 18.9414C323.637 19.0117 323.824 19.1289 323.965 19.293C324.105 19.457 324.176 19.6914 324.176 19.9961C324.176 20.3242 324.105 20.5703 323.965 20.7344C323.824 20.875 323.637 20.9805 323.402 21.0508C323.191 21.1211 322.934 21.1562 322.629 21.1562C322.324 21.1562 321.996 21.1562 321.645 21.1562H309.094V55.6797H321.645C321.996 55.6797 322.324 55.6797 322.629 55.6797C322.934 55.6797 323.191 55.7148 323.402 55.7852C323.637 55.8555 323.824 55.9727 323.965 56.1367C324.105 56.3008 324.176 56.5352 324.176 56.8398C324.176 57.168 324.105 57.4141 323.965 57.5781C323.824 57.7188 323.637 57.8242 323.402 57.8945C323.191 57.9648 322.934 58 322.629 58C322.324 58 321.996 58 321.645 58H293.555C293.273 58 292.98 58 292.676 58C292.371 58 292.09 57.9648 291.832 57.8945C291.598 57.8242 291.398 57.707 291.234 57.543C291.07 57.3789 290.988 57.1211 290.988 56.7695C290.988 56.4883 291.059 56.2773 291.199 56.1367C291.363 55.9727 291.562 55.8555 291.797 55.7852C292.055 55.7148 292.336 55.6797 292.641 55.6797C292.945 55.6797 293.25 55.6797 293.555 55.6797H306.105V21.1562ZM350.965 37.0469L368.402 19.5742C368.871 19.1055 369.34 18.8711 369.809 18.8711C370.137 18.8711 370.395 18.9883 370.582 19.2227C370.793 19.457 370.898 19.7383 370.898 20.0664C370.898 20.2539 370.852 20.4648 370.758 20.6992C370.664 20.9336 370.512 21.1562 370.301 21.3672L352.793 38.7695L370.617 55.3633C370.922 55.6445 371.133 55.9375 371.25 56.2422C371.391 56.5234 371.461 56.7812 371.461 57.0156C371.461 57.2969 371.367 57.5312 371.18 57.7188C371.016 57.9062 370.793 58 370.512 58C369.996 58 369.445 57.7188 368.859 57.1562L350.965 40.4922L333.07 57.1914C332.719 57.5195 332.414 57.7422 332.156 57.8594C331.898 57.9531 331.652 58 331.418 58C331.113 58 330.867 57.918 330.68 57.7539C330.516 57.5664 330.434 57.332 330.434 57.0508C330.434 56.5117 330.727 55.9609 331.312 55.3984L349.137 38.7695L331.629 21.3672C331.207 20.9453 330.996 20.5117 330.996 20.0664C330.996 19.7383 331.102 19.457 331.312 19.2227C331.523 18.9883 331.793 18.8711 332.121 18.8711C332.59 18.8711 333.059 19.1055 333.527 19.5742L350.965 37.0469ZM417.973 56.7695C417.973 57.1211 417.914 57.3789 417.797 57.543C417.68 57.707 417.516 57.8242 417.305 57.8945C417.117 57.9648 416.883 58 416.602 58C416.32 58 416.004 58 415.652 58H382.816C382.582 58 382.406 57.9883 382.289 57.9648C382.172 57.9414 382.078 57.8828 382.008 57.7891C381.961 57.6953 381.926 57.5781 381.902 57.4375C381.902 57.2734 381.902 57.0508 381.902 56.7695V20.4883C381.902 20.1367 381.902 19.8555 381.902 19.6445C381.926 19.4336 381.973 19.2695 382.043 19.1523C382.113 19.0352 382.23 18.9531 382.395 18.9062C382.582 18.8594 382.852 18.8359 383.203 18.8359H415.301C415.652 18.8359 415.98 18.8359 416.285 18.8359C416.59 18.8359 416.859 18.8711 417.094 18.9414C417.352 19.0117 417.551 19.1289 417.691 19.293C417.832 19.457 417.902 19.7148 417.902 20.0664C417.902 20.3477 417.832 20.5703 417.691 20.7344C417.551 20.875 417.352 20.9805 417.094 21.0508C416.859 21.1211 416.59 21.1562 416.285 21.1562C415.98 21.1562 415.652 21.1562 415.301 21.1562H384.891V36.5547H415.125C415.641 36.5547 416.074 36.625 416.426 36.7656C416.777 36.9062 416.953 37.2109 416.953 37.6797C416.953 38.1953 416.801 38.5352 416.496 38.6992C416.215 38.8633 415.84 38.9453 415.371 38.9453H384.891V55.6797H415.371C415.723 55.6797 416.051 55.6797 416.355 55.6797C416.66 55.6797 416.93 55.7148 417.164 55.7852C417.422 55.8555 417.621 55.9727 417.762 56.1367C417.902 56.2773 417.973 56.4883 417.973 56.7695ZM429.082 58C428.73 58 428.449 57.9883 428.238 57.9648C428.051 57.9414 427.91 57.8945 427.816 57.8242C427.723 57.7305 427.664 57.6016 427.641 57.4375C427.641 57.25 427.641 57.0039 427.641 56.6992V21.1211C427.641 20.5117 427.746 19.9844 427.957 19.5391C428.168 19.0703 428.613 18.8359 429.293 18.8359C429.855 18.8359 430.219 19.082 430.383 19.5742C430.547 20.043 430.629 20.5586 430.629 21.1211V55.6797H460.828C461.297 55.6797 461.648 55.8086 461.883 56.0664C462.141 56.3008 462.27 56.5586 462.27 56.8398C462.27 57.1445 462.141 57.4141 461.883 57.6484C461.648 57.8828 461.297 58 460.828 58H429.082Z" fill="#FF0000"/>
</svg>
